<svg width="735" height="605" viewBox="0 0 735 605" fill="none" xmlns="http://www.w3.org/2000/svg">
<path d="M279.257 80.6647C297.698 62.2115 297.698 32.293 279.257 13.8399C260.815 -4.61329 230.916 -4.61329 212.474 13.8399L13.8312 212.608C-4.61039 231.061 -4.61039 260.979 13.8312 279.432L212.474 478.2C230.916 496.653 260.815 496.653 279.257 478.2C297.698 459.747 297.698 429.828 279.257 411.375L213.345 345.422C158.481 290.524 158.481 201.516 213.345 146.618L279.257 80.6647Z" fill="url(#paint0_linear_38_18)"/>
<path d="M522.526 126.8C504.084 108.347 474.185 108.347 455.743 126.8C437.302 145.253 437.302 175.171 455.743 193.625L521.655 259.578C576.519 314.476 576.519 403.484 521.655 458.382L455.743 524.335C437.302 542.788 437.302 572.707 455.743 591.16C474.185 609.613 504.084 609.613 522.526 591.16L721.169 392.392C730.025 383.531 735 371.512 735 358.98C735 346.448 730.025 334.429 721.169 325.568L522.526 126.8Z" fill="url(#paint1_linear_38_18)"/>
<defs>
<linearGradient id="paint0_linear_38_18" x1="237.884" y1="1.15505e-05" x2="506.625" y2="605.281" gradientUnits="userSpaceOnUse">
<stop stop-color="#FF6060"/>
<stop offset="0.479167" stop-color="#CA45C5"/>
<stop offset="1" stop-color="#4E27A2"/>
</linearGradient>
<linearGradient id="paint1_linear_38_18" x1="237.884" y1="1.15505e-05" x2="506.625" y2="605.281" gradientUnits="userSpaceOnUse">
<stop stop-color="#FF6060"/>
<stop offset="0.479167" stop-color="#CA45C5"/>
<stop offset="1" stop-color="#4E27A2"/>
</linearGradient>
</defs>
</svg>