<svg width="256" height="256" viewBox="0 0 256 256" fill="none" xmlns="http://www.w3.org/2000/svg">
<path d="M55.492 30.1444C84.84 52.1417 116.412 96.7372 128 120.669V183.878C128 182.533 127.48 184.054 126.36 187.329C120.312 205.064 96.688 274.279 42.668 218.946C14.224 189.813 27.392 160.679 79.168 151.884C49.548 156.914 16.248 148.6 7.112 116.004C4.48 106.627 0 48.8701 0 41.0694C0 1.99412 34.316 14.2763 55.492 30.1444ZM200.508 30.1444C171.16 52.1417 139.588 96.7372 128 120.669V183.878C128 182.533 128.52 184.054 129.64 187.329C135.688 205.064 159.312 274.279 213.332 218.946C241.776 189.813 228.608 160.679 176.832 151.884C206.452 156.914 239.752 148.6 248.888 116.004C251.52 106.627 256 48.8701 256 41.0694C256 1.99412 221.688 14.2763 200.508 30.1444Z" fill="#0085FF"/>
</svg>
