<svg width="256" height="256" viewBox="0 0 256 256" fill="none" xmlns="http://www.w3.org/2000/svg">
<g clip-path="url(#clip0_18_30)">
<path d="M256 128C256 57.3075 198.692 0 128 0C57.3076 0 0 57.3075 0 128C0 191.889 46.8078 244.843 108 254.444V165H75.5V128H108V99.8C108 67.72 127.11 50 156.347 50C170.352 50 185 52.5 185 52.5V84H168.859C152.959 84 148 93.8667 148 103.989V128H183.5L177.825 165H148V254.444C209.192 244.843 256 191.889 256 128Z" fill="#1877F2"/>
<path d="M177.825 165L183.5 128H148V103.989C148 93.8667 152.959 84 168.859 84H185V52.5C185 52.5 170.352 50 156.347 50C127.11 50 108 67.72 108 99.8V128H75.5V165H108V254.444C121.253 256.519 134.747 256.519 148 254.444V165H177.825Z" fill="white"/>
</g>
<defs>
<clipPath id="clip0_18_30">
<rect width="256" height="256" fill="white"/>
</clipPath>
</defs>
</svg>
