<svg width="256" height="256" viewBox="0 0 256 256" fill="none" xmlns="http://www.w3.org/2000/svg">
<g clip-path="url(#clip0_18_34)">
<path d="M64.9161 255.094C55.0142 254.983 45.2054 253.167 35.9203 249.725C29.1399 247.219 23.0054 243.229 17.9652 238.047C12.7693 233.017 8.77348 226.881 6.27451 220.095C2.83546 210.81 1.02195 201.002 0.913569 191.101C0.153098 174.642 0 169.705 0 128C0 86.2946 0.168157 81.3754 0.906039 64.9035C1.02757 55.0068 2.84331 45.204 6.27451 35.9203C8.78564 29.1388 12.7758 23.0018 17.9551 17.9551C22.9891 12.7639 29.1265 8.77182 35.9128 6.27451C45.1979 2.83261 55.0067 1.01654 64.9085 0.906039C81.3729 0.153098 86.3172 0 128 0C169.683 0 174.625 0.168157 191.096 0.906039C200.996 1.02671 210.801 2.84247 220.087 6.27451C226.87 8.77512 233.006 12.7658 238.042 17.9526C243.231 22.9904 247.223 29.1278 249.725 35.9128C253.168 45.1977 254.985 55.0065 255.096 64.9085C255.849 81.3804 256.002 86.3122 256.002 128.005C256.002 169.698 255.849 174.63 255.096 191.101C254.977 201.002 253.16 210.808 249.725 220.095C247.127 226.829 243.148 232.945 238.043 238.048C232.939 243.151 226.822 247.129 220.087 249.725C210.802 253.168 200.993 254.985 191.091 255.096C174.635 255.849 169.688 256.002 127.995 256.002C86.3021 256.002 81.3703 255.857 64.9136 255.096" fill="url(#paint0_radial_18_34)"/>
<path d="M64.9161 255.094C55.0142 254.983 45.2054 253.167 35.9203 249.725C29.1399 247.219 23.0054 243.229 17.9652 238.047C12.7693 233.017 8.77348 226.881 6.27451 220.095C2.83546 210.81 1.02195 201.002 0.913569 191.101C0.153098 174.642 0 169.705 0 128C0 86.2946 0.168157 81.3754 0.906039 64.9035C1.02757 55.0068 2.84331 45.204 6.27451 35.9203C8.78564 29.1388 12.7758 23.0018 17.9551 17.9551C22.9891 12.7639 29.1265 8.77182 35.9128 6.27451C45.1979 2.83261 55.0067 1.01654 64.9085 0.906039C81.3729 0.153098 86.3172 0 128 0C169.683 0 174.625 0.168157 191.096 0.906039C200.996 1.02671 210.801 2.84247 220.087 6.27451C226.87 8.77512 233.006 12.7658 238.042 17.9526C243.231 22.9904 247.223 29.1278 249.725 35.9128C253.168 45.1977 254.985 55.0065 255.096 64.9085C255.849 81.3804 256.002 86.3122 256.002 128.005C256.002 169.698 255.849 174.63 255.096 191.101C254.977 201.002 253.16 210.808 249.725 220.095C247.127 226.829 243.148 232.945 238.043 238.048C232.939 243.151 226.822 247.129 220.087 249.725C210.802 253.168 200.993 254.985 191.091 255.096C174.635 255.849 169.688 256.002 127.995 256.002C86.3021 256.002 81.3703 255.857 64.9136 255.096" fill="url(#paint1_radial_18_34)"/>
<path d="M96.5698 128.545C96.5703 122.275 98.4301 116.146 101.914 110.932C105.398 105.719 110.349 101.657 116.142 99.2577C121.935 96.8588 128.31 96.2317 134.459 97.4556C140.609 98.6795 146.257 101.699 150.69 106.134C155.123 110.568 158.142 116.217 159.364 122.367C160.587 128.516 159.958 134.89 157.558 140.683C155.157 146.475 151.093 151.426 145.879 154.908C140.666 158.391 134.536 160.249 128.266 160.249C119.859 160.247 111.796 156.906 105.852 150.961C99.9081 145.015 96.5692 136.952 96.5698 128.545ZM79.4303 128.545C79.4303 138.203 82.2945 147.645 87.6607 155.676C93.0268 163.707 100.654 169.967 109.577 173.663C118.501 177.359 128.32 178.326 137.793 176.442C147.267 174.558 155.968 169.907 162.798 163.077C169.628 156.247 174.279 147.545 176.163 138.072C178.048 128.599 177.081 118.78 173.384 109.856C169.688 100.932 163.429 93.3053 155.398 87.9391C147.367 82.573 137.925 79.7088 128.266 79.7088C121.853 79.7085 115.502 80.9715 109.577 83.4256C103.652 85.8797 98.2682 89.4769 93.7333 94.0118C89.1984 98.5466 85.6012 103.93 83.1471 109.856C80.693 115.781 79.43 122.131 79.4303 128.545ZM167.622 77.7738C167.621 80.0309 168.29 82.2376 169.543 84.1148C170.796 85.9921 172.578 87.4556 174.663 88.3203C176.747 89.1849 179.042 89.412 181.256 88.9726C183.47 88.5332 185.504 87.4472 187.1 85.8519C188.697 84.2566 189.785 82.2237 190.226 80.0101C190.668 77.7966 190.443 75.5019 189.58 73.4162C188.717 71.3306 187.255 69.5476 185.379 68.2928C183.503 67.038 181.297 66.3678 179.039 66.3668C176.014 66.3681 173.113 67.5702 170.973 69.709C168.833 71.8478 167.63 74.7484 167.627 77.7738M89.8485 205.96C83.8178 205.893 77.8434 204.79 72.187 202.697C68.0849 201.116 64.3594 198.693 61.2501 195.585C58.1409 192.477 55.7168 188.753 54.134 184.651C52.0403 178.995 50.9366 173.021 50.8713 166.99C50.4095 156.966 50.3191 153.954 50.3191 128.557C50.3191 103.16 50.4195 100.156 50.8713 90.122C50.9445 84.092 52.0479 78.1187 54.134 72.4605C55.715 68.3572 58.1383 64.6307 61.2477 61.5212C64.3572 58.4118 68.0837 55.9885 72.187 54.4075C77.8431 52.3138 83.8177 51.2101 89.8485 51.1448C99.8727 50.683 102.884 50.5926 128.271 50.5926C153.658 50.5926 156.672 50.6905 166.706 51.1473C172.736 51.2205 178.71 52.3239 184.368 54.41C188.471 55.9912 192.197 58.4145 195.307 61.5239C198.416 64.6333 200.84 68.3598 202.421 72.463C204.514 78.1192 205.618 84.0937 205.683 90.1246C206.145 100.164 206.236 103.16 206.236 128.56C206.236 153.959 206.143 156.961 205.683 166.995C205.613 173.025 204.51 178.999 202.421 184.656C200.838 188.758 198.414 192.482 195.305 195.59C192.195 198.698 188.47 201.121 184.368 202.702C178.712 204.795 172.737 205.899 166.706 205.965C156.682 206.426 153.67 206.517 128.271 206.517C102.872 206.517 99.8702 206.424 89.8485 205.965M89.0605 34.0204C81.1692 34.1756 73.3616 35.6691 65.9702 38.4376C59.6518 40.8806 53.9136 44.6169 49.1235 49.407C44.3334 54.1972 40.597 59.9354 38.1541 66.2538C35.386 73.6452 33.8924 81.4528 33.7369 89.344C33.2675 99.4836 33.1621 102.726 33.1621 128.555C33.1621 154.383 33.27 157.623 33.7369 167.765C33.8924 175.657 35.3859 183.464 38.1541 190.856C40.5972 197.174 44.3336 202.912 49.1237 207.702C53.9138 212.492 59.6519 216.229 65.9702 218.672C73.3619 221.439 81.1694 222.932 89.0605 223.089C99.2051 223.551 102.443 223.664 128.271 223.664C154.099 223.664 157.34 223.556 167.482 223.089C175.373 222.933 183.18 221.439 190.572 218.672C196.89 216.229 202.628 212.492 207.419 207.702C212.209 202.912 215.945 197.174 218.388 190.856C221.16 183.465 222.654 175.657 222.805 167.765C223.267 157.618 223.373 154.383 223.373 128.555C223.373 102.726 223.265 99.4861 222.805 89.344C222.65 81.4528 221.157 73.6451 218.388 66.2538C215.945 59.9366 212.21 54.1992 207.421 49.4093C202.632 44.6193 196.896 40.8823 190.58 38.4376C183.189 35.6674 175.381 34.1737 167.489 34.0204C157.347 33.5561 154.107 33.4456 128.284 33.4456C102.46 33.4456 99.2126 33.5536 89.0655 34.0204" fill="white"/>
</g>
<defs>
<radialGradient id="paint0_radial_18_34" cx="0" cy="0" r="1" gradientUnits="userSpaceOnUse" gradientTransform="translate(16.5672 250.393) scale(325.025)">
<stop offset="0.09" stop-color="#FA8F21"/>
<stop offset="0.78" stop-color="#D82D7E"/>
</radialGradient>
<radialGradient id="paint1_radial_18_34" cx="0" cy="0" r="1" gradientUnits="userSpaceOnUse" gradientTransform="translate(177.323 242.171) scale(286.025)">
<stop offset="0.64" stop-color="#8C3AAA" stop-opacity="0"/>
<stop offset="1" stop-color="#8C3AAA"/>
</radialGradient>
<clipPath id="clip0_18_34">
<rect width="256" height="256" fill="white"/>
</clipPath>
</defs>
</svg>
