<svg width="256" height="256" viewBox="0 0 256 256" fill="none" xmlns="http://www.w3.org/2000/svg">
<path d="M256 56.624C246.37 60.824 236.186 63.6154 225.76 64.912C236.747 58.3941 244.961 48.073 248.848 35.904C238.56 42.0054 227.305 46.302 215.568 48.608C208.372 40.9245 199.031 35.5827 188.76 33.2767C178.488 30.9707 167.761 31.8071 157.971 35.6772C148.181 39.5473 139.781 46.2722 133.863 54.9782C127.944 63.6842 124.781 73.9689 124.784 84.496C124.784 88.656 125.136 92.656 126 96.464C105.121 95.4404 84.6937 90.0216 66.0528 80.5619C47.4119 71.1022 30.9775 57.8147 17.824 41.568C11.0851 53.1177 9.00174 66.8018 11.9981 79.8337C14.9945 92.8656 22.8453 104.265 33.952 111.712C25.6441 111.489 17.5116 109.272 10.24 105.248V105.824C10.2539 117.943 14.4426 129.687 22.1011 139.079C29.7595 148.472 40.42 154.939 52.288 157.392C47.7982 158.575 43.171 159.156 38.528 159.12C35.1934 159.179 31.8622 158.879 28.592 158.224C31.9831 168.64 38.5198 177.749 47.3023 184.297C56.0848 190.844 66.681 194.508 77.632 194.784C59.055 209.313 36.1436 217.194 12.56 217.168C8.256 217.168 4.128 216.976 0 216.448C23.9981 231.913 51.9628 240.093 80.512 240C177.088 240 229.888 160 229.888 90.656C229.888 88.336 229.808 86.096 229.696 83.872C240.047 76.4638 248.961 67.2301 256 56.624Z" fill="#03A9F4"/>
</svg>
